<?xml version = "1.0" encoding = "utf-8" standalone = "no"?><!DOCTYPE svg PUBLIC "-//W3C//DTD SVG 1.1//EN" "http://www.w3.org/Graphics/SVG/1.1/DTD/svg11.dtd">
<svg preserveAspectRatio = "xMinYMin meet" width = "100%" height = "100%" fill = "#ffffff" viewBox = "0 0 746.667 560.000"  version = "1.1" xmlns = "http://www.w3.org/2000/svg" xmlns:xlink = "http://www.w3.org/1999/xlink">
  <desc>Matlab Figure Converted by PLOT2SVG written by Juerg Schwizer</desc>
  <g id = "topgroup">
  <rect x = "0" y = "0" width = "746.667" height = "560.000" fill = "#ffffff" stroke-linecap = "square" stroke-linejoin = "miter" stroke = "none" />
  <g id  = "ID000000">
      <polygon fill = "#ffffff" fill-opacity = "1.000" stroke-linecap = "square" stroke-linejoin = "miter" stroke = "none" stroke-width = "2.667pt" stroke-opacity = "1.000" stroke-dasharray = "none" points = "76.787,498.400 534.553,498.400 534.553,42.000 76.787,42.000 "/>
      <polygon fill = "#ffffff" fill-opacity = "1.000" stroke-linecap = "square" stroke-linejoin = "miter" stroke = "none" stroke-width = "2.667pt" stroke-opacity = "1.000" stroke-dasharray = "none" points = "76.787,42.000 534.553,42.000 534.553,42.000 76.787,42.000 "/>
      <polygon fill = "#ffffff" fill-opacity = "1.000" stroke-linecap = "square" stroke-linejoin = "miter" stroke = "none" stroke-width = "2.667pt" stroke-opacity = "1.000" stroke-dasharray = "none" points = "76.787,498.400 76.787,498.400 76.787,42.000 76.787,42.000 "/>
    <g>
<g id = "ID000002" >
</g>
<g id = "ID000003" >
</g>
<g id = "ID000004" >
</g>
<g id = "ID000005" clip-path = "url(#ID000001)" >
      <polyline fill = "none" stroke-linecap = "square" stroke-linejoin = "miter" stroke = "#0071bc" stroke-width = "2.667pt" stroke-dasharray = "none" stroke-opacity = "1.000" points = "122.563,452.760 168.340,407.120 214.117,361.480 259.893,315.840 305.670,270.200 351.447,224.560 397.223,178.920 443.000,133.280 488.777,87.640 534.553,42.000 "/>
<g>
      <polygon fill = "none" fill-opacity = "1.000" stroke-linecap = "square" stroke-linejoin = "miter" stroke = "#0071bc" stroke-width = "2.667pt" stroke-opacity = "1.000" stroke-dasharray = "none" points = "115.897,446.093 115.897,459.427 129.230,459.427 129.230,446.093 115.897,446.093 "/>
      <polygon fill = "none" fill-opacity = "1.000" stroke-linecap = "square" stroke-linejoin = "miter" stroke = "#0071bc" stroke-width = "2.667pt" stroke-opacity = "1.000" stroke-dasharray = "none" points = "161.673,400.453 161.673,413.787 175.007,413.787 175.007,400.453 161.673,400.453 "/>
      <polygon fill = "none" fill-opacity = "1.000" stroke-linecap = "square" stroke-linejoin = "miter" stroke = "#0071bc" stroke-width = "2.667pt" stroke-opacity = "1.000" stroke-dasharray = "none" points = "207.450,354.813 207.450,368.147 220.783,368.147 220.783,354.813 207.450,354.813 "/>
      <polygon fill = "none" fill-opacity = "1.000" stroke-linecap = "square" stroke-linejoin = "miter" stroke = "#0071bc" stroke-width = "2.667pt" stroke-opacity = "1.000" stroke-dasharray = "none" points = "253.227,309.173 253.227,322.507 266.560,322.507 266.560,309.173 253.227,309.173 "/>
      <polygon fill = "none" fill-opacity = "1.000" stroke-linecap = "square" stroke-linejoin = "miter" stroke = "#0071bc" stroke-width = "2.667pt" stroke-opacity = "1.000" stroke-dasharray = "none" points = "299.003,263.533 299.003,276.867 312.337,276.867 312.337,263.533 299.003,263.533 "/>
      <polygon fill = "none" fill-opacity = "1.000" stroke-linecap = "square" stroke-linejoin = "miter" stroke = "#0071bc" stroke-width = "2.667pt" stroke-opacity = "1.000" stroke-dasharray = "none" points = "344.780,217.893 344.780,231.227 358.113,231.227 358.113,217.893 344.780,217.893 "/>
      <polygon fill = "none" fill-opacity = "1.000" stroke-linecap = "square" stroke-linejoin = "miter" stroke = "#0071bc" stroke-width = "2.667pt" stroke-opacity = "1.000" stroke-dasharray = "none" points = "390.557,172.253 390.557,185.587 403.890,185.587 403.890,172.253 390.557,172.253 "/>
      <polygon fill = "none" fill-opacity = "1.000" stroke-linecap = "square" stroke-linejoin = "miter" stroke = "#0071bc" stroke-width = "2.667pt" stroke-opacity = "1.000" stroke-dasharray = "none" points = "436.333,126.613 436.333,139.947 449.667,139.947 449.667,126.613 436.333,126.613 "/>
      <polygon fill = "none" fill-opacity = "1.000" stroke-linecap = "square" stroke-linejoin = "miter" stroke = "#0071bc" stroke-width = "2.667pt" stroke-opacity = "1.000" stroke-dasharray = "none" points = "482.110,80.973 482.110,94.307 495.443,94.307 495.443,80.973 482.110,80.973 "/>
      <polygon fill = "none" fill-opacity = "1.000" stroke-linecap = "square" stroke-linejoin = "miter" stroke = "#0071bc" stroke-width = "2.667pt" stroke-opacity = "1.000" stroke-dasharray = "none" points = "527.887,35.333 527.887,48.667 541.220,48.667 541.220,35.333 527.887,35.333 "/>
</g>
</g>
<g id = "ID000006" clip-path = "url(#ID000001)" >
      <polyline fill = "none" stroke-linecap = "square" stroke-linejoin = "miter" stroke = "#d85218" stroke-width = "2.667pt" stroke-dasharray = "none" stroke-opacity = "1.000" points = "122.563,42.000 168.340,87.640 214.117,133.280 259.893,178.920 305.670,224.560 351.447,270.200 397.223,315.840 443.000,361.480 488.777,407.120 534.553,452.760 "/>
<g>
      <polygon fill = "none" fill-opacity = "1.000" stroke-linecap = "square" stroke-linejoin = "miter" stroke = "#d85218" stroke-width = "2.667pt" stroke-opacity = "1.000" stroke-dasharray = "none" points = "115.897,35.333 115.897,48.667 129.230,48.667 129.230,35.333 115.897,35.333 "/>
      <polygon fill = "none" fill-opacity = "1.000" stroke-linecap = "square" stroke-linejoin = "miter" stroke = "#d85218" stroke-width = "2.667pt" stroke-opacity = "1.000" stroke-dasharray = "none" points = "161.673,80.973 161.673,94.307 175.007,94.307 175.007,80.973 161.673,80.973 "/>
      <polygon fill = "none" fill-opacity = "1.000" stroke-linecap = "square" stroke-linejoin = "miter" stroke = "#d85218" stroke-width = "2.667pt" stroke-opacity = "1.000" stroke-dasharray = "none" points = "207.450,126.613 207.450,139.947 220.783,139.947 220.783,126.613 207.450,126.613 "/>
      <polygon fill = "none" fill-opacity = "1.000" stroke-linecap = "square" stroke-linejoin = "miter" stroke = "#d85218" stroke-width = "2.667pt" stroke-opacity = "1.000" stroke-dasharray = "none" points = "253.227,172.253 253.227,185.587 266.560,185.587 266.560,172.253 253.227,172.253 "/>
      <polygon fill = "none" fill-opacity = "1.000" stroke-linecap = "square" stroke-linejoin = "miter" stroke = "#d85218" stroke-width = "2.667pt" stroke-opacity = "1.000" stroke-dasharray = "none" points = "299.003,217.893 299.003,231.227 312.337,231.227 312.337,217.893 299.003,217.893 "/>
      <polygon fill = "none" fill-opacity = "1.000" stroke-linecap = "square" stroke-linejoin = "miter" stroke = "#d85218" stroke-width = "2.667pt" stroke-opacity = "1.000" stroke-dasharray = "none" points = "344.780,263.533 344.780,276.867 358.113,276.867 358.113,263.533 344.780,263.533 "/>
      <polygon fill = "none" fill-opacity = "1.000" stroke-linecap = "square" stroke-linejoin = "miter" stroke = "#d85218" stroke-width = "2.667pt" stroke-opacity = "1.000" stroke-dasharray = "none" points = "390.557,309.173 390.557,322.507 403.890,322.507 403.890,309.173 390.557,309.173 "/>
      <polygon fill = "none" fill-opacity = "1.000" stroke-linecap = "square" stroke-linejoin = "miter" stroke = "#d85218" stroke-width = "2.667pt" stroke-opacity = "1.000" stroke-dasharray = "none" points = "436.333,354.813 436.333,368.147 449.667,368.147 449.667,354.813 436.333,354.813 "/>
      <polygon fill = "none" fill-opacity = "1.000" stroke-linecap = "square" stroke-linejoin = "miter" stroke = "#d85218" stroke-width = "2.667pt" stroke-opacity = "1.000" stroke-dasharray = "none" points = "482.110,400.453 482.110,413.787 495.443,413.787 495.443,400.453 482.110,400.453 "/>
      <polygon fill = "none" fill-opacity = "1.000" stroke-linecap = "square" stroke-linejoin = "miter" stroke = "#d85218" stroke-width = "2.667pt" stroke-opacity = "1.000" stroke-dasharray = "none" points = "527.887,446.093 527.887,459.427 541.220,459.427 541.220,446.093 527.887,446.093 "/>
</g>
</g>
  <clipPath id = "ID000001">
    <rect x = "32.139" y = "24.222" width = "520.192" height = "517.362"/>
  </clipPath>
    </g>
    <g>
      <polyline fill = "none" stroke-linecap = "square" stroke-linejoin = "miter" stroke = "#262626" stroke-width = "2.667pt" stroke-dasharray = "none" stroke-opacity = "1.000" points = "76.787,498.400 76.787,493.822 "/>
      <polyline fill = "none" stroke-linecap = "square" stroke-linejoin = "miter" stroke = "#262626" stroke-width = "2.667pt" stroke-dasharray = "none" stroke-opacity = "1.000" points = "305.670,498.400 305.670,493.822 "/>
      <polyline fill = "none" stroke-linecap = "square" stroke-linejoin = "miter" stroke = "#262626" stroke-width = "2.667pt" stroke-dasharray = "none" stroke-opacity = "1.000" points = "534.553,498.400 534.553,493.822 "/>
      <polyline fill = "none" stroke-linecap = "square" stroke-linejoin = "miter" stroke = "#262626" stroke-width = "2.667pt" stroke-dasharray = "none" stroke-opacity = "1.000" points = "76.787,498.400 534.553,498.400 "/>
  <g transform = "translate(76.787,507.528)">
    <g transform = "rotate(-0.000)">
      <text x = "0.000" y = "0.000" font-family = "Arial" text-anchor = "middle" dominant-baseline = "text-before-edge" font-size = "21.333pt" fill = "#262626" ><tspan>0</tspan></text>
    </g>
  </g>
  <g transform = "translate(305.670,507.528)">
    <g transform = "rotate(-0.000)">
      <text x = "0.000" y = "0.000" font-family = "Arial" text-anchor = "middle" dominant-baseline = "text-before-edge" font-size = "21.333pt" fill = "#262626" ><tspan>5</tspan></text>
    </g>
  </g>
  <g transform = "translate(534.553,507.528)">
    <g transform = "rotate(-0.000)">
      <text x = "0.000" y = "0.000" font-family = "Arial" text-anchor = "middle" dominant-baseline = "text-before-edge" font-size = "21.333pt" fill = "#262626" ><tspan>10</tspan></text>
    </g>
  </g>
      <polyline fill = "none" stroke-linecap = "square" stroke-linejoin = "miter" stroke = "#262626" stroke-width = "2.667pt" stroke-dasharray = "none" stroke-opacity = "1.000" points = "76.787,498.400 81.364,498.400 "/>
      <polyline fill = "none" stroke-linecap = "square" stroke-linejoin = "miter" stroke = "#262626" stroke-width = "2.667pt" stroke-dasharray = "none" stroke-opacity = "1.000" points = "76.787,407.120 81.364,407.120 "/>
      <polyline fill = "none" stroke-linecap = "square" stroke-linejoin = "miter" stroke = "#262626" stroke-width = "2.667pt" stroke-dasharray = "none" stroke-opacity = "1.000" points = "76.787,315.840 81.364,315.840 "/>
      <polyline fill = "none" stroke-linecap = "square" stroke-linejoin = "miter" stroke = "#262626" stroke-width = "2.667pt" stroke-dasharray = "none" stroke-opacity = "1.000" points = "76.787,224.560 81.364,224.560 "/>
      <polyline fill = "none" stroke-linecap = "square" stroke-linejoin = "miter" stroke = "#262626" stroke-width = "2.667pt" stroke-dasharray = "none" stroke-opacity = "1.000" points = "76.787,133.280 81.364,133.280 "/>
      <polyline fill = "none" stroke-linecap = "square" stroke-linejoin = "miter" stroke = "#262626" stroke-width = "2.667pt" stroke-dasharray = "none" stroke-opacity = "1.000" points = "76.787,42.000 81.364,42.000 "/>
      <polyline fill = "none" stroke-linecap = "square" stroke-linejoin = "miter" stroke = "#262626" stroke-width = "2.667pt" stroke-dasharray = "none" stroke-opacity = "1.000" points = "76.787,498.400 76.787,42.000 "/>
  <g transform = "translate(67.631,498.400)">
    <g transform = "rotate(-0.000)">
      <text x = "0.000" y = "0.000" font-family = "Arial" text-anchor = "end" dominant-baseline = "central" font-size = "21.333pt" fill = "#262626" ><tspan>0</tspan></text>
    </g>
  </g>
  <g transform = "translate(67.631,407.120)">
    <g transform = "rotate(-0.000)">
      <text x = "0.000" y = "0.000" font-family = "Arial" text-anchor = "end" dominant-baseline = "central" font-size = "21.333pt" fill = "#262626" ><tspan>2</tspan></text>
    </g>
  </g>
  <g transform = "translate(67.631,315.840)">
    <g transform = "rotate(-0.000)">
      <text x = "0.000" y = "0.000" font-family = "Arial" text-anchor = "end" dominant-baseline = "central" font-size = "21.333pt" fill = "#262626" ><tspan>4</tspan></text>
    </g>
  </g>
  <g transform = "translate(67.631,224.560)">
    <g transform = "rotate(-0.000)">
      <text x = "0.000" y = "0.000" font-family = "Arial" text-anchor = "end" dominant-baseline = "central" font-size = "21.333pt" fill = "#262626" ><tspan>6</tspan></text>
    </g>
  </g>
  <g transform = "translate(67.631,133.280)">
    <g transform = "rotate(-0.000)">
      <text x = "0.000" y = "0.000" font-family = "Arial" text-anchor = "end" dominant-baseline = "central" font-size = "21.333pt" fill = "#262626" ><tspan>8</tspan></text>
    </g>
  </g>
  <g transform = "translate(67.631,42.000)">
    <g transform = "rotate(-0.000)">
      <text x = "0.000" y = "0.000" font-family = "Arial" text-anchor = "end" dominant-baseline = "central" font-size = "21.333pt" fill = "#262626" ><tspan>10</tspan></text>
    </g>
  </g>
      <polyline fill = "none" stroke-linecap = "square" stroke-linejoin = "miter" stroke = "#262626" stroke-width = "2.667pt" stroke-dasharray = "none" stroke-opacity = "1.000" points = "76.787,498.400 76.787,498.400 "/>
    </g>
  </g>
  <g id  = "ID000007">
  <clipPath id = "ID000008">
    <rect x = "564.000" y = "41.333" width = "126.667" height = "72.667"/>
  </clipPath>
  <g id = "ID000009">
    <rect fill = "#ffffff" stroke-linecap = "square" stroke-linejoin = "miter" stroke = "#262626" stroke-width = "2.667pt" stroke-dasharray = "none" stroke-opacity = "1.000" x = "564.000" y = "41.333" width = "126.667" height = "72.667"/>
  </g>
<g id = "ID000010" clip-path = "url(#ID000008)" >
<g>
      <polygon fill = "none" fill-opacity = "1.000" stroke-linecap = "square" stroke-linejoin = "miter" stroke = "#d85218" stroke-width = "2.667pt" stroke-opacity = "1.000" stroke-dasharray = "none" points = "582.667,88.000 582.667,101.333 596.000,101.333 596.000,88.000 582.667,88.000 "/>
</g>
</g>
<g id = "ID000011" clip-path = "url(#ID000008)" >
      <polyline fill = "none" stroke-linecap = "square" stroke-linejoin = "miter" stroke = "#d85218" stroke-width = "2.667pt" stroke-dasharray = "none" stroke-opacity = "1.000" points = "569.333,94.667 609.333,94.667 "/>
</g>
<g id = "ID000012" clip-path = "url(#ID000008)" >
<g>
      <polygon fill = "none" fill-opacity = "1.000" stroke-linecap = "square" stroke-linejoin = "miter" stroke = "#0071bc" stroke-width = "2.667pt" stroke-opacity = "1.000" stroke-dasharray = "none" points = "582.667,54.000 582.667,67.333 596.000,67.333 596.000,54.000 582.667,54.000 "/>
</g>
</g>
<g id = "ID000013" clip-path = "url(#ID000008)" >
      <polyline fill = "none" stroke-linecap = "square" stroke-linejoin = "miter" stroke = "#0071bc" stroke-width = "2.667pt" stroke-dasharray = "none" stroke-opacity = "1.000" points = "569.333,60.667 609.333,60.667 "/>
</g>
<g id = "ID000014" >
  <g transform = "translate(613.333,94.667)">
    <g transform = "rotate(-0.000)">
      <text x = "0.000" y = "0.000" font-family = "Arial" text-anchor = "start" dominant-baseline = "central" font-size = "21.333pt" fill = "#000000" ><tspan>data2</tspan></text>
    </g>
  </g>
</g>
<g id = "ID000015" >
  <g transform = "translate(613.333,60.667)">
    <g transform = "rotate(-0.000)">
      <text x = "0.000" y = "0.000" font-family = "Arial" text-anchor = "start" dominant-baseline = "central" font-size = "21.333pt" fill = "#000000" ><tspan>data1</tspan></text>
    </g>
  </g>
</g>
  </g>
  </g>
</svg>
