<?xml version = "1.0" encoding = "utf-8" standalone = "no"?><!DOCTYPE svg PUBLIC "-//W3C//DTD SVG 1.1//EN" "http://www.w3.org/Graphics/SVG/1.1/DTD/svg11.dtd">
<svg preserveAspectRatio = "xMinYMin meet" width = "100%" height = "100%" fill = "none" viewBox = "0 0 746.667 560.000"  version = "1.1" xmlns = "http://www.w3.org/2000/svg" xmlns:xlink = "http://www.w3.org/1999/xlink">
  <desc>Matlab Figure Converted by PLOT2SVG written by Juerg Schwizer</desc>
  <g id = "topgroup">
  <rect x = "0" y = "0" width = "746.667" height = "560.000" fill = "#ffffff" stroke = "none" />
  <g id  = "ID000000">
      <polygon fill = "#ffffff" fill-opacity = "1.000" stroke = "none" points = "77.142,483.378 534.553,483.378 534.553,42.000 77.142,42.000 "/>
      <polygon fill = "#ffffff" fill-opacity = "1.000" stroke = "none" points = "77.142,42.000 534.553,42.000 534.553,42.000 77.142,42.000 "/>
      <polygon fill = "#ffffff" fill-opacity = "1.000" stroke = "none" points = "77.142,483.378 77.142,483.378 77.142,42.000 77.142,42.000 "/>
    <g>
<g id = "ID000002" >
  <g transform = "translate(32.779,262.689)">
    <g transform = "rotate(-90.000)">
      <text x = "0.000" y = "0.000" font-family = "Arial" text-anchor = "middle" dominant-baseline = "text-after-edge" font-size = "21.333pt" fill = "#262626"><tspan>Y</tspan></text>
    </g>
  </g>
</g>
<g id = "ID000003" >
  <g transform = "translate(305.848,526.275)">
    <g transform = "rotate(-0.000)">
      <text x = "0.000" y = "0.000" font-family = "Arial" text-anchor = "middle" dominant-baseline = "text-before-edge" font-size = "21.333pt" fill = "#262626"><tspan>X</tspan></text>
    </g>
  </g>
</g>
<g id = "ID000004" >
</g>
<g id = "ID000005" clip-path = "url(#ID000001)" >
      <polyline fill = "none" stroke-linecap = "square" stroke-linejoin = "round" stroke = "#0071bc" stroke-width = "2.667pt" stroke-dasharray = "none" stroke-opacity = "1.000" points = "77.142,483.378 127.966,434.336 178.789,385.294 229.613,336.252 280.436,287.210 331.260,238.168 382.083,189.126 432.906,140.084 483.730,91.042 534.553,42.000 "/>
<g>
      <polygon fill = "none" stroke-linecap = "square" stroke-linejoin = "miter" stroke = "#0071bc" stroke-width = "2.667pt" stroke-opacity = "1.000" stroke-dasharray = "none" points = "70.476,476.711 70.476,490.044 83.809,490.044 83.809,476.711 70.476,476.711 "/>
      <polygon fill = "none" stroke-linecap = "square" stroke-linejoin = "miter" stroke = "#0071bc" stroke-width = "2.667pt" stroke-opacity = "1.000" stroke-dasharray = "none" points = "121.299,427.669 121.299,441.002 134.632,441.002 134.632,427.669 121.299,427.669 "/>
      <polygon fill = "none" stroke-linecap = "square" stroke-linejoin = "miter" stroke = "#0071bc" stroke-width = "2.667pt" stroke-opacity = "1.000" stroke-dasharray = "none" points = "172.122,378.627 172.122,391.960 185.456,391.960 185.456,378.627 172.122,378.627 "/>
      <polygon fill = "none" stroke-linecap = "square" stroke-linejoin = "miter" stroke = "#0071bc" stroke-width = "2.667pt" stroke-opacity = "1.000" stroke-dasharray = "none" points = "222.946,329.585 222.946,342.919 236.279,342.919 236.279,329.585 222.946,329.585 "/>
      <polygon fill = "none" stroke-linecap = "square" stroke-linejoin = "miter" stroke = "#0071bc" stroke-width = "2.667pt" stroke-opacity = "1.000" stroke-dasharray = "none" points = "273.769,280.543 273.769,293.877 287.103,293.877 287.103,280.543 273.769,280.543 "/>
      <polygon fill = "none" stroke-linecap = "square" stroke-linejoin = "miter" stroke = "#0071bc" stroke-width = "2.667pt" stroke-opacity = "1.000" stroke-dasharray = "none" points = "324.593,231.501 324.593,244.835 337.926,244.835 337.926,231.501 324.593,231.501 "/>
      <polygon fill = "none" stroke-linecap = "square" stroke-linejoin = "miter" stroke = "#0071bc" stroke-width = "2.667pt" stroke-opacity = "1.000" stroke-dasharray = "none" points = "375.416,182.459 375.416,195.793 388.750,195.793 388.750,182.459 375.416,182.459 "/>
      <polygon fill = "none" stroke-linecap = "square" stroke-linejoin = "miter" stroke = "#0071bc" stroke-width = "2.667pt" stroke-opacity = "1.000" stroke-dasharray = "none" points = "426.240,133.417 426.240,146.751 439.573,146.751 439.573,133.417 426.240,133.417 "/>
      <polygon fill = "none" stroke-linecap = "square" stroke-linejoin = "miter" stroke = "#0071bc" stroke-width = "2.667pt" stroke-opacity = "1.000" stroke-dasharray = "none" points = "477.063,84.375 477.063,97.709 490.397,97.709 490.397,84.375 477.063,84.375 "/>
      <polygon fill = "none" stroke-linecap = "square" stroke-linejoin = "miter" stroke = "#0071bc" stroke-width = "2.667pt" stroke-opacity = "1.000" stroke-dasharray = "none" points = "527.887,35.333 527.887,48.667 541.220,48.667 541.220,35.333 527.887,35.333 "/>
</g>
</g>
<g id = "ID000006" clip-path = "url(#ID000001)" >
      <polyline fill = "none" stroke-linecap = "square" stroke-linejoin = "round" stroke = "#d85218" stroke-width = "2.667pt" stroke-dasharray = "none" stroke-opacity = "1.000" points = "77.142,42.000 127.966,91.042 178.789,140.084 229.613,189.126 280.436,238.168 331.260,287.210 382.083,336.252 432.906,385.294 483.730,434.336 534.553,483.378 "/>
<g>
      <polygon fill = "none" stroke-linecap = "square" stroke-linejoin = "miter" stroke = "#d85218" stroke-width = "2.667pt" stroke-opacity = "1.000" stroke-dasharray = "none" points = "70.476,35.333 70.476,48.667 83.809,48.667 83.809,35.333 70.476,35.333 "/>
      <polygon fill = "none" stroke-linecap = "square" stroke-linejoin = "miter" stroke = "#d85218" stroke-width = "2.667pt" stroke-opacity = "1.000" stroke-dasharray = "none" points = "121.299,84.375 121.299,97.709 134.632,97.709 134.632,84.375 121.299,84.375 "/>
      <polygon fill = "none" stroke-linecap = "square" stroke-linejoin = "miter" stroke = "#d85218" stroke-width = "2.667pt" stroke-opacity = "1.000" stroke-dasharray = "none" points = "172.122,133.417 172.122,146.751 185.456,146.751 185.456,133.417 172.122,133.417 "/>
      <polygon fill = "none" stroke-linecap = "square" stroke-linejoin = "miter" stroke = "#d85218" stroke-width = "2.667pt" stroke-opacity = "1.000" stroke-dasharray = "none" points = "222.946,182.459 222.946,195.793 236.279,195.793 236.279,182.459 222.946,182.459 "/>
      <polygon fill = "none" stroke-linecap = "square" stroke-linejoin = "miter" stroke = "#d85218" stroke-width = "2.667pt" stroke-opacity = "1.000" stroke-dasharray = "none" points = "273.769,231.501 273.769,244.835 287.103,244.835 287.103,231.501 273.769,231.501 "/>
      <polygon fill = "none" stroke-linecap = "square" stroke-linejoin = "miter" stroke = "#d85218" stroke-width = "2.667pt" stroke-opacity = "1.000" stroke-dasharray = "none" points = "324.593,280.543 324.593,293.877 337.926,293.877 337.926,280.543 324.593,280.543 "/>
      <polygon fill = "none" stroke-linecap = "square" stroke-linejoin = "miter" stroke = "#d85218" stroke-width = "2.667pt" stroke-opacity = "1.000" stroke-dasharray = "none" points = "375.416,329.585 375.416,342.919 388.750,342.919 388.750,329.585 375.416,329.585 "/>
      <polygon fill = "none" stroke-linecap = "square" stroke-linejoin = "miter" stroke = "#d85218" stroke-width = "2.667pt" stroke-opacity = "1.000" stroke-dasharray = "none" points = "426.240,378.627 426.240,391.960 439.573,391.960 439.573,378.627 426.240,378.627 "/>
      <polygon fill = "none" stroke-linecap = "square" stroke-linejoin = "miter" stroke = "#d85218" stroke-width = "2.667pt" stroke-opacity = "1.000" stroke-dasharray = "none" points = "477.063,427.669 477.063,441.002 490.397,441.002 490.397,427.669 477.063,427.669 "/>
      <polygon fill = "none" stroke-linecap = "square" stroke-linejoin = "miter" stroke = "#d85218" stroke-width = "2.667pt" stroke-opacity = "1.000" stroke-dasharray = "none" points = "527.887,476.711 527.887,490.044 541.220,490.044 541.220,476.711 527.887,476.711 "/>
</g>
</g>
  <clipPath id = "ID000001">
    <rect x = "68.253" y = "33.111" width = "475.189" height = "459.156"/>
  </clipPath>
    </g>
    <g>
      <polyline fill = "none" stroke-linecap = "square" stroke-linejoin = "miter" stroke = "#262626" stroke-width = "2.667pt" stroke-dasharray = "none" stroke-opacity = "1.000" points = "127.966,483.378 127.966,478.804 "/>
      <polyline fill = "none" stroke-linecap = "square" stroke-linejoin = "miter" stroke = "#262626" stroke-width = "2.667pt" stroke-dasharray = "none" stroke-opacity = "1.000" points = "229.613,483.378 229.613,478.804 "/>
      <polyline fill = "none" stroke-linecap = "square" stroke-linejoin = "miter" stroke = "#262626" stroke-width = "2.667pt" stroke-dasharray = "none" stroke-opacity = "1.000" points = "331.260,483.378 331.260,478.804 "/>
      <polyline fill = "none" stroke-linecap = "square" stroke-linejoin = "miter" stroke = "#262626" stroke-width = "2.667pt" stroke-dasharray = "none" stroke-opacity = "1.000" points = "432.906,483.378 432.906,478.804 "/>
      <polyline fill = "none" stroke-linecap = "square" stroke-linejoin = "miter" stroke = "#262626" stroke-width = "2.667pt" stroke-dasharray = "none" stroke-opacity = "1.000" points = "534.553,483.378 534.553,478.804 "/>
      <polyline fill = "none" stroke-linecap = "square" stroke-linejoin = "miter" stroke = "#262626" stroke-width = "2.667pt" stroke-dasharray = "none" stroke-opacity = "1.000" points = "77.142,483.378 534.553,483.378 "/>
  <g transform = "translate(127.966,492.205)">
    <g transform = "rotate(-0.000)">
      <text x = "0.000" y = "0.000" font-family = "Arial" text-anchor = "middle" dominant-baseline = "text-before-edge" font-size = "21.333pt" fill = "#262626"><tspan>2</tspan></text>
    </g>
  </g>
  <g transform = "translate(229.613,492.205)">
    <g transform = "rotate(-0.000)">
      <text x = "0.000" y = "0.000" font-family = "Arial" text-anchor = "middle" dominant-baseline = "text-before-edge" font-size = "21.333pt" fill = "#262626"><tspan>4</tspan></text>
    </g>
  </g>
  <g transform = "translate(331.260,492.205)">
    <g transform = "rotate(-0.000)">
      <text x = "0.000" y = "0.000" font-family = "Arial" text-anchor = "middle" dominant-baseline = "text-before-edge" font-size = "21.333pt" fill = "#262626"><tspan>6</tspan></text>
    </g>
  </g>
  <g transform = "translate(432.906,492.205)">
    <g transform = "rotate(-0.000)">
      <text x = "0.000" y = "0.000" font-family = "Arial" text-anchor = "middle" dominant-baseline = "text-before-edge" font-size = "21.333pt" fill = "#262626"><tspan>8</tspan></text>
    </g>
  </g>
  <g transform = "translate(534.553,492.205)">
    <g transform = "rotate(-0.000)">
      <text x = "0.000" y = "0.000" font-family = "Arial" text-anchor = "middle" dominant-baseline = "text-before-edge" font-size = "21.333pt" fill = "#262626"><tspan>10</tspan></text>
    </g>
  </g>
      <polyline fill = "none" stroke-linecap = "square" stroke-linejoin = "miter" stroke = "#262626" stroke-width = "2.667pt" stroke-dasharray = "none" stroke-opacity = "1.000" points = "77.142,434.336 81.716,434.336 "/>
      <polyline fill = "none" stroke-linecap = "square" stroke-linejoin = "miter" stroke = "#262626" stroke-width = "2.667pt" stroke-dasharray = "none" stroke-opacity = "1.000" points = "77.142,336.252 81.716,336.252 "/>
      <polyline fill = "none" stroke-linecap = "square" stroke-linejoin = "miter" stroke = "#262626" stroke-width = "2.667pt" stroke-dasharray = "none" stroke-opacity = "1.000" points = "77.142,238.168 81.716,238.168 "/>
      <polyline fill = "none" stroke-linecap = "square" stroke-linejoin = "miter" stroke = "#262626" stroke-width = "2.667pt" stroke-dasharray = "none" stroke-opacity = "1.000" points = "77.142,140.084 81.716,140.084 "/>
      <polyline fill = "none" stroke-linecap = "square" stroke-linejoin = "miter" stroke = "#262626" stroke-width = "2.667pt" stroke-dasharray = "none" stroke-opacity = "1.000" points = "77.142,42.000 81.716,42.000 "/>
      <polyline fill = "none" stroke-linecap = "square" stroke-linejoin = "miter" stroke = "#262626" stroke-width = "2.667pt" stroke-dasharray = "none" stroke-opacity = "1.000" points = "77.142,483.378 77.142,42.000 "/>
  <g transform = "translate(67.994,434.336)">
    <g transform = "rotate(-0.000)">
      <text x = "0.000" y = "0.000" font-family = "Arial" text-anchor = "end" dominant-baseline = "central" font-size = "21.333pt" fill = "#262626"><tspan>2</tspan></text>
    </g>
  </g>
  <g transform = "translate(67.994,336.252)">
    <g transform = "rotate(-0.000)">
      <text x = "0.000" y = "0.000" font-family = "Arial" text-anchor = "end" dominant-baseline = "central" font-size = "21.333pt" fill = "#262626"><tspan>4</tspan></text>
    </g>
  </g>
  <g transform = "translate(67.994,238.168)">
    <g transform = "rotate(-0.000)">
      <text x = "0.000" y = "0.000" font-family = "Arial" text-anchor = "end" dominant-baseline = "central" font-size = "21.333pt" fill = "#262626"><tspan>6</tspan></text>
    </g>
  </g>
  <g transform = "translate(67.994,140.084)">
    <g transform = "rotate(-0.000)">
      <text x = "0.000" y = "0.000" font-family = "Arial" text-anchor = "end" dominant-baseline = "central" font-size = "21.333pt" fill = "#262626"><tspan>8</tspan></text>
    </g>
  </g>
  <g transform = "translate(67.994,42.000)">
    <g transform = "rotate(-0.000)">
      <text x = "0.000" y = "0.000" font-family = "Arial" text-anchor = "end" dominant-baseline = "central" font-size = "21.333pt" fill = "#262626"><tspan>10</tspan></text>
    </g>
  </g>
      <polyline fill = "none" stroke-linecap = "square" stroke-linejoin = "miter" stroke = "#262626" stroke-width = "2.667pt" stroke-dasharray = "none" stroke-opacity = "1.000" points = "77.142,483.378 77.142,483.378 "/>
    </g>
  </g>
  <g id  = "ID000007">
  <clipPath id = "ID000008">
    <rect x = "564.000" y = "41.333" width = "126.667" height = "72.667"/>
  </clipPath>
  <g id = "ID000009">
    <rect fill = "#ffffff" stroke-linecap = "square" stroke-linejoin = "miter" stroke = "#262626" stroke-width = "2.667pt" stroke-dasharray = "none" stroke-opacity = "1.000" x = "564.000" y = "41.333" width = "126.667" height = "72.667"/>
  </g>
<g id = "ID000010" clip-path = "url(#ID000008)" >
<g>
      <polygon fill = "none" stroke-linecap = "square" stroke-linejoin = "miter" stroke = "#d85218" stroke-width = "2.667pt" stroke-opacity = "1.000" stroke-dasharray = "none" points = "582.667,88.000 582.667,101.333 596.000,101.333 596.000,88.000 582.667,88.000 "/>
</g>
</g>
<g id = "ID000011" clip-path = "url(#ID000008)" >
      <polyline fill = "none" stroke-linecap = "square" stroke-linejoin = "round" stroke = "#d85218" stroke-width = "2.667pt" stroke-dasharray = "none" stroke-opacity = "1.000" points = "569.333,94.667 609.333,94.667 "/>
</g>
<g id = "ID000012" clip-path = "url(#ID000008)" >
<g>
      <polygon fill = "none" stroke-linecap = "square" stroke-linejoin = "miter" stroke = "#0071bc" stroke-width = "2.667pt" stroke-opacity = "1.000" stroke-dasharray = "none" points = "582.667,54.000 582.667,67.333 596.000,67.333 596.000,54.000 582.667,54.000 "/>
</g>
</g>
<g id = "ID000013" clip-path = "url(#ID000008)" >
      <polyline fill = "none" stroke-linecap = "square" stroke-linejoin = "round" stroke = "#0071bc" stroke-width = "2.667pt" stroke-dasharray = "none" stroke-opacity = "1.000" points = "569.333,60.667 609.333,60.667 "/>
</g>
<g id = "ID000014" >
  <g transform = "translate(613.333,94.667)">
    <g transform = "rotate(-0.000)">
      <text x = "0.000" y = "0.000" font-family = "Arial" text-anchor = "start" dominant-baseline = "central" font-size = "21.333pt" fill = "#000000"><tspan>data2</tspan></text>
    </g>
  </g>
</g>
<g id = "ID000015" >
  <g transform = "translate(613.333,60.667)">
    <g transform = "rotate(-0.000)">
      <text x = "0.000" y = "0.000" font-family = "Arial" text-anchor = "start" dominant-baseline = "central" font-size = "21.333pt" fill = "#000000"><tspan>data1</tspan></text>
    </g>
  </g>
</g>
  </g>
  </g>
</svg>
